# xmcd
#
# Track frame offsets:
#	150
#	11701
#	25801
#	41671
#	55547
#	69841
#	82912
#	97187
#	108932
#	120495
#	133425
#	146981
#	160805
#	174776
#	187829
#	202213
#	215221
#	228691
#	243115
#	256754
#
# Disc length: 3623 seconds
#
# Revision: 1
# Processed by: cddbd v1.5.2PL0 Copyright (c) Steve Scherf et al.
# Submitted via: audiograbber 1.83.01
#
DISCID=160e2514
DTITLE=—борник - 101 Songs That Won World War II CD5 - You Are My Sunshine
DYEAR=1900
DGENRE=
TTITLE0=Bing Crosby - You Are My Sunshine
TTITLE1=Glenn Miller - When Johnny Comes Marching Home
TTITLE2=Ray Noble - The Very Thought Of You
TTITLE3=Ella Fitzgerald - Imagination
TTITLE4=Bing Crosby - Dolores
TTITLE5=Judy Garland - Over The Rainbow
TTITLE6=Vaughn Monroe - There I've said It Again
TTITLE7=Kenny Gardner - I Dont Want To Set The World On Fire
TTITLE8=Irene Daye - Sweetheart Of All My Dreams
TTITLE9=Bing Crosby and The Andrews Sisters - Hot Time In The Town Of Berlin
TTITLE10=George Formby - Bless Em All
TTITLE11=Glenn Miller - Shhh, Its A military Secret
TTITLE12=Vera Lynn - Harbour Lights
TTITLE13=Flanagan and Allen - If A Grey Haired Old Lady
TTITLE14=Mary Martin - Ill Walk Alone
TTITLE15=The Organ, The Dance Band and Me - I've Got Sixpence
TTITLE16=Bob Eberly - I remember You
TTITLE17=Artie Wayne - Dream
TTITLE18=Woody Herman - I'll Get By
TTITLE19=Peggy Mann - Every Time We Say Goodbye
EXTD=
EXTT0=
EXTT1=
EXTT2=
EXTT3=
EXTT4=
EXTT5=
EXTT6=
EXTT7=
EXTT8=
EXTT9=
EXTT10=
EXTT11=
EXTT12=
EXTT13=
EXTT14=
EXTT15=
EXTT16=
EXTT17=
EXTT18=
EXTT19=
PLAYORDER=
